# xmcd CD database file
#
# Track frame offsets:
#	150
#	16717
#	34955
#	48642
#	69360
#	83822
#	108200
#	128040
#	147087
#	164515
#
# Disc length: 2266 seconds
#
# Revision: 0
# Processed by: cddbd v1.5.1PL0 Copyright (c) Steve Scherf et al.
# Submitted via: CDex 1.51
#
DISCID=7d08d80a
DTITLE=Carmen McRae - At The Great American Music Hall [CD2)
DYEAR=1976
DGENRE=Jazz
TTITLE0=Don´t Misunderstand
TTITLE1=A Beautiful Friendship
TTITLE2=Star Eyes
TTITLE3=Dindi
TTITLE4=Never Let Me Go
TTITLE5=T´ Ain´t Nobods´s Bizness
TTITLE6=Only Women Bleed
TTITLE7=No More Blues
TTITLE8=The Folks Who Live On The Hill
TTITLE9=Closing
EXTD=YEAR: 1976
EXTT0=
EXTT1=
EXTT2=
EXTT3=
EXTT4=
EXTT5=
EXTT6=
EXTT7=
EXTT8=
EXTT9=
PLAYORDER=
